# xmcd
#
# Track frame offsets: 
#        150
#        9317
#        35229
#        51213
#        66747
#        83396
#        108250
#        130360
#        142468
#        157769
#        184333
#        196524
#        210103
#        230567
#        246583
#
# Disc length: 3447 seconds
#
# Revision: 1
# Processed by: cddbd v1.5.2PL0 Copyright (c) Steve Scherf et al.
# Submitted via: ExactAudioCopy v0.95a5
#
DISCID=d20d750f
DTITLE=Созвездие хитов - Инструментальные хиты Vol.3
DYEAR=2010
DGENRE=Instrumental
TTITLE0=Floyd Cramer - Chattanooga Choo Choo
TTITLE1=Vangelis - Pulstar
TTITLE2=The Alan Parsons Project - Mammagamma
TTITLE3=Rondo Venziano - Rondo Venziano
TTITLE4=Boston Pops Orchestra - Moon River
TTITLE5=Miles Davis - Time After Time
TTITLE6=Kenny G - Forever In Love
TTITLE7=Henry Mancini - Baby Elephant Walk
TTITLE8=Frank DeVol - Moments To Remember
TTITLE9=James Galway - The Girl From Ipanema
TTITLE10=Jose Feliciano - Pegao
TTITLE11=Chris Botti - Hallelujah
TTITLE12=Ricky King - Don't Cry For Me, Argentina
TTITLE13=Fausto Papetti - Feelings
TTITLE14=Al Hirt - Stranger In The Night
EXTD=
EXTT0=
EXTT1=
EXTT2=
EXTT3=
EXTT4=
EXTT5=
EXTT6=
EXTT7=
EXTT8=
EXTT9=
EXTT10=
EXTT11=
EXTT12=
EXTT13=
EXTT14=
PLAYORDER=
